<?xml version="1.0" encoding="UTF-8"?>
<svg id="Layer_1" xmlns="http://www.w3.org/2000/svg" version="1.1" viewBox="0 0 1779 500">
  <!-- Generator: Adobe Illustrator 30.2.1, SVG Export Plug-In . SVG Version: 2.1.1 Build 1)  -->
  <defs>
    <style>
      .st0 {
        fill: #fc0;
      }

      .st1 {
        font-family: SFProRounded-Regular, 'SF Pro Rounded';
        font-size: 68.34px;
      }

      .st1, .st2, .st3 {
        fill: #222;
      }

      .st2 {
        font-family: SFProRounded-Ultralight, 'SF Pro Rounded';
        font-size: 47px;
        font-weight: 100;
      }
    </style>
  </defs>
  <g>
    <text class="st1" transform="translate(460.68 423.91)"><tspan x="0" y="0">narrowcasting &amp; digital signage</tspan></text>
    <g>
      <path class="st0" d="M492.75,21.36c0-2.66.51-5.2,1.52-7.61,1.02-2.41,2.41-4.54,4.19-6.38,1.78-1.84,3.87-3.26,6.28-4.28,2.41-1.02,4.95-1.52,7.61-1.52s5.36.51,7.71,1.52c2.35,1.02,4.44,2.45,6.28,4.28,1.84,1.84,3.3,3.93,4.38,6.28,1.08,2.35,1.62,4.92,1.62,7.71v98.59h118.38V21.36c0-2.79.51-5.36,1.52-7.71,1.02-2.35,2.44-4.44,4.28-6.28,1.84-1.84,3.93-3.26,6.28-4.28,2.35-1.02,4.92-1.52,7.71-1.52s5.2.51,7.61,1.52c2.41,1.02,4.5,2.45,6.28,4.28,1.78,1.84,3.2,3.93,4.28,6.28,1.08,2.35,1.62,4.92,1.62,7.71v236.76c0,2.66-.54,5.2-1.62,7.61-1.08,2.41-2.51,4.5-4.28,6.28-1.78,1.78-3.87,3.21-6.28,4.28-2.41,1.08-4.95,1.62-7.61,1.62s-5.36-.54-7.71-1.62c-2.35-1.08-4.44-2.5-6.28-4.28-1.84-1.78-3.27-3.87-4.28-6.28-1.02-2.41-1.52-4.95-1.52-7.61v-98.59h-118.38v98.59c0,2.66-.54,5.2-1.62,7.61-1.08,2.41-2.54,4.5-4.38,6.28-1.84,1.78-3.93,3.21-6.28,4.28-2.35,1.08-4.92,1.62-7.71,1.62s-5.2-.54-7.61-1.62c-2.41-1.08-4.5-2.5-6.28-4.28-1.78-1.78-3.17-3.87-4.19-6.28-1.02-2.41-1.52-4.95-1.52-7.61V21.36Z"/>
      <path class="st3" d="M727.61,21.36c0-2.66.51-5.2,1.52-7.61,1.02-2.41,2.41-4.54,4.19-6.38,1.78-1.84,3.87-3.26,6.28-4.28,2.41-1.02,4.95-1.52,7.61-1.52s5.36.51,7.71,1.52c2.35,1.02,4.44,2.45,6.28,4.28,1.84,1.84,3.3,3.93,4.38,6.28,1.08,2.35,1.62,4.92,1.62,7.71v236.76c0,2.66-.54,5.2-1.62,7.61-1.08,2.41-2.54,4.5-4.38,6.28-1.84,1.78-3.93,3.21-6.28,4.28-2.35,1.08-4.92,1.62-7.71,1.62s-5.2-.54-7.61-1.62c-2.41-1.08-4.5-2.5-6.28-4.28-1.78-1.78-3.17-3.87-4.19-6.28-1.02-2.41-1.52-4.95-1.52-7.61V21.36Z"/>
      <path class="st0" d="M807.16,27.26c-.76-2.03-1.14-4.06-1.14-6.09,0-2.41.48-4.76,1.43-7.04s2.28-4.38,4-6.28,3.81-3.39,6.28-4.47c2.47-1.08,5.17-1.62,8.09-1.62,4.31,0,8.18,1.24,11.61,3.71s5.84,5.61,7.23,9.42l60.14,181.18,60.33-181.18c1.4-3.81,3.74-6.95,7.04-9.42,3.3-2.47,7.17-3.71,11.61-3.71,2.54,0,5.04.48,7.52,1.43s4.57,2.35,6.28,4.19c1.71,1.84,3.11,3.93,4.19,6.28,1.08,2.35,1.62,4.85,1.62,7.52,0,1.02-.06,2.03-.19,3.05-.13,1.02-.38,2.03-.76,3.05l-78.98,236.95c-.76,2.41-1.81,4.44-3.14,6.09-1.33,1.65-2.85,3.05-4.57,4.19s-3.52,1.97-5.42,2.47c-1.9.51-3.81.76-5.71.76-4.31,0-8.12-1.24-11.42-3.71-3.3-2.47-5.58-5.68-6.85-9.61l-39.78-118.57-39.4-118.57Z"/>
      <path class="st3" d="M1238.35,250.5c-1.08-2.38-2.54-4.49-4.33-6.28-1.73-1.79-3.9-3.14-6.33-4.17-2.49-1.03-4.98-1.52-7.52-1.52h-138.15v-.38h-39.63v19.98c0,2.65.54,5.2,1.52,7.58,1.03,2.44,2.44,4.55,4.22,6.28,1.79,1.79,3.84,3.25,6.28,4.33,2.38,1.03,4.93,1.57,7.58,1.57h158.18c2.65,0,5.2-.54,7.58-1.57,2.44-1.08,4.55-2.54,6.28-4.33,1.79-1.73,3.25-3.84,4.33-6.28,1.08-2.38,1.57-4.93,1.57-7.58s-.49-5.2-1.57-7.63ZM1094.73,159.55h86.02c2.44,0,4.82-.49,7.25-1.46,2.38-.92,4.49-2.27,6.28-3.95,1.79-1.73,3.19-3.84,4.38-6.28,1.14-2.49,1.68-5.2,1.68-8.12s-.54-5.79-1.68-8.17c-1.19-2.44-2.6-4.49-4.38-6.28-1.79-1.79-3.9-3.14-6.28-4.01-2.44-.87-4.82-1.35-7.25-1.35h-98.74v-.05h-39.63v39.3h52.35v.38ZM1238.35,13.65c-1.08-2.33-2.54-4.44-4.33-6.28-1.73-1.84-3.84-3.25-6.28-4.28-2.38-1.03-4.93-1.52-7.58-1.52h-158.18c-2.65,0-5.2.49-7.58,1.52-2.44,1.03-4.49,2.44-6.28,4.28-1.79,1.84-3.19,3.95-4.22,6.39-.97,2.38-1.52,4.93-1.52,7.58v19.54h52.35v.05h125.43c2.65,0,5.25-.49,7.69-1.57,2.49-1.08,4.6-2.54,6.39-4.28,1.79-1.79,3.19-3.9,4.17-6.33,1.03-2.38,1.52-4.87,1.52-7.42,0-2.76-.49-5.36-1.57-7.69Z"/>
      <path class="st0" d="M767.02,325.31c0,5.71-1.87,10.44-5.61,14.18-3.74,3.74-8.47,5.61-14.18,5.61-2.79,0-5.36-.54-7.71-1.62-2.35-1.08-4.41-2.54-6.19-4.38-1.78-1.84-3.17-3.93-4.19-6.28-1.02-2.35-1.52-4.85-1.52-7.52v-.38c0-2.54.51-5.01,1.52-7.42,1.02-2.41,2.41-4.5,4.19-6.28,1.78-1.78,3.84-3.2,6.19-4.28,2.35-1.08,4.92-1.62,7.71-1.62s5.2.51,7.61,1.52c2.41,1.02,4.5,2.38,6.28,4.09s3.2,3.78,4.28,6.19c1.08,2.41,1.62,5.01,1.62,7.8v.38Z"/>
      <path class="st0" d="M1318.32,21.45c0,5.59-1.87,10.25-5.61,13.99-3.74,3.74-8.47,5.61-14.18,5.61-2.79,0-5.36-.54-7.71-1.62-2.35-1.08-4.41-2.5-6.19-4.28-1.78-1.78-3.17-3.87-4.19-6.28-1.02-2.41-1.52-4.88-1.52-7.42v-.38c0-2.66.51-5.17,1.52-7.52,1.02-2.35,2.41-4.44,4.19-6.28,1.78-1.84,3.84-3.26,6.19-4.28,2.35-1.02,4.92-1.52,7.71-1.52s5.2.48,7.61,1.43c2.41.95,4.5,2.32,6.28,4.09,1.78,1.78,3.2,3.84,4.28,6.19,1.08,2.35,1.62,4.98,1.62,7.9v.38Z"/>
    </g>
  </g>
  <text class="st2" transform="translate(1054.55 490.53)"><tspan x="0" y="0">By StudioPieters</tspan></text>
</svg>